<svg xmlns="http://www.w3.org/2000/svg" width="500" height="500" style="width:100%;height:100%;transform:translate3d(0,0,0);content-visibility:visible" viewBox="0 0 500 500"><defs><filter id="a" width="100%" height="100%" x="0%" y="0%" filterUnits="objectBoundingBox"><feComponentTransfer in="SourceGraphic"><feFuncA tableValues="1.0 0.0" type="table"/></feComponentTransfer></filter><filter id="c" width="100%" height="100%" x="0%" y="0%" filterUnits="objectBoundingBox"><feComponentTransfer in="SourceGraphic"><feFuncA tableValues="1.0 0.0" type="table"/></feComponentTransfer></filter><filter id="e" width="100%" height="100%" x="0%" y="0%" filterUnits="objectBoundingBox"><feComponentTransfer in="SourceGraphic"><feFuncA tableValues="1.0 0.0" type="table"/></feComponentTransfer></filter><filter id="g" width="100%" height="100%" x="0%" y="0%" filterUnits="objectBoundingBox"><feComponentTransfer in="SourceGraphic"><feFuncA tableValues="1.0 0.0" type="table"/></feComponentTransfer></filter><mask id="n" mask-type="alpha"><g filter="url(#a)"><path fill="#fff" d="M0 0h500v500H0z" opacity="0"/><use xmlns:ns1="http://www.w3.org/1999/xlink" ns1:href="#b"/></g></mask><mask id="m" mask-type="alpha"><g filter="url(#c)"><path fill="#fff" d="M0 0h500v500H0z" opacity="0"/><use xmlns:ns2="http://www.w3.org/1999/xlink" ns2:href="#d"/></g></mask><mask id="l" mask-type="alpha"><g filter="url(#e)"><path fill="#fff" d="M0 0h500v500H0z" opacity="0"/><use xmlns:ns3="http://www.w3.org/1999/xlink" ns3:href="#f"/></g></mask><mask id="k" mask-type="alpha"><g filter="url(#g)"><path fill="#fff" d="M0 0h500v500H0z" opacity="0"/><use xmlns:ns4="http://www.w3.org/1999/xlink" ns4:href="#h"/></g></mask><path id="b" fill="red" d="M146.5-54.25v108.5h-293v-108.5h293z" style="display:block" transform="translate(242.5 348.25)"/><path id="d" fill="#FFF" d="m-6.875-6.029-18.192 19.12c-4.475 5.082-7.13 10.402-7.13 15.582 0 3.294 1.074 6.523 3.425 9.611 2.286 2.98 6.501 3.663 9.6 1.528L6.249 22.367a60.354 60.354 0 0 0 24.445-35.249s3.207-10.977.249-22.127a30.215 30.215 0 0 0-2.275-6.046" style="display:block" transform="translate(323.063 183.866)"/><path id="f" fill="#FFF" d="M-60.451 57.181V-57.181H60.451V57.181" style="display:block" transform="translate(250 236.485)"/><clipPath id="j"><path d="M0 0h500v500H0z"/></clipPath><clipPath id="i"><path d="M0 0h500v500H0z"/></clipPath><g id="h" fill="#FFF" clip-path="url(#i)" style="display:block"><path d="m-6.875-6.029-18.192 19.12c-4.475 5.082-7.13 10.402-7.13 15.582 0 3.294 1.074 6.523 3.425 9.611 2.286 2.98 6.501 3.663 9.6 1.528L6.249 22.367a60.354 60.354 0 0 0 24.445-35.249s3.207-10.977.249-22.127a30.215 30.215 0 0 0-2.275-6.046" style="display:block" transform="translate(323.063 183.866)"/><path d="m-.779-35.588-18.869 18.934-19.726 40.831a6.666 6.666 0 0 0 2.107 9.189c6.802 4.265 15.773 2.208 20.038-4.594L6.532 5.426 40.393-6.533" style="display:block" transform="translate(259.802 174.439)"/></g></defs><g clip-path="url(#j)"><g mask="url(#k)" style="display:block"><path fill="none" stroke="#121330" stroke-linecap="round" stroke-linejoin="round" stroke-width="12.04" d="M311.25 242.98h36.621l41.944 94.644H110.186l41.944-94.644H189m-78.814 93.596v59.152m279.629-58.104v59.152"/></g><g mask="url(#l)" style="display:block"><path fill="none" stroke="#121330" stroke-linecap="round" stroke-linejoin="round" stroke-width="12.04" d="m259.023 138.851-18.869 18.934-19.726 40.831a6.666 6.666 0 0 0 2.107 9.189s0 0 0 0c6.802 4.265 15.773 2.208 20.038-4.594l23.761-23.346 33.861-11.959"/></g><g mask="url(#m)" style="display:block"><path fill="none" stroke="#07A889" stroke-linecap="round" stroke-linejoin="round" stroke-width="12.04" d="M189.549 293.666V179.304h120.902v114.362"/></g><g fill="none" stroke="#121330" stroke-linecap="round" stroke-linejoin="round" stroke-width="12.04" style="display:block"><path d="M259.023 138.851s29.364-24.883 48.974-26.385l16.976-23.477 45.536 32.362-16.998 26.686m-37.496 29.631c-9.302-8.961-15.82-9.761-15.82-9.761"/><path d="m316.188 177.837-18.192 19.12c-4.475 5.082-7.13 10.402-7.13 15.582 0 3.294 1.074 6.523 3.425 9.611 2.286 2.98 6.501 3.663 9.6 1.528l25.421-17.445a60.354 60.354 0 0 0 24.445-35.249s3.207-10.977.249-22.127a30.215 30.215 0 0 0-2.275-6.046"/></g><g fill="none" mask="url(#n)" style="display:none"><path/><path/><path/></g><path fill="none" stroke="#121330" stroke-linecap="round" stroke-linejoin="round" stroke-width="12.04" d="M-72.693 0H72.693" style="display:block" transform="translate(250 293.666)"/><g class="com" style="display:none"><path/><path/><path/><path/><path/><path/><path/><path/><path/><path/><path/><path/></g></g></svg>